<?xml version="1.0" encoding="UTF-8"?>
<!DOCTYPE svg PUBLIC "-//W3C//DTD SVG 1.1//EN" "http://www.w3.org/Graphics/SVG/1.1/DTD/svg11.dtd">
<svg xmlns="http://www.w3.org/2000/svg" version="1.1" width="813px" height="216px" style="shape-rendering:geometricPrecision; text-rendering:geometricPrecision; image-rendering:optimizeQuality; fill-rule:evenodd; clip-rule:evenodd" xmlns:xlink="http://www.w3.org/1999/xlink">
<g><path style="opacity:1" fill="#fcfcfc" d="M -0.5,-0.5 C 270.5,-0.5 541.5,-0.5 812.5,-0.5C 812.5,71.5 812.5,143.5 812.5,215.5C 541.5,215.5 270.5,215.5 -0.5,215.5C -0.5,143.5 -0.5,71.5 -0.5,-0.5 Z"/></g>
<g><path style="opacity:1" fill="#bdbdbd" d="M 794.5,10.5 C 789.833,9.16667 785.167,9.16667 780.5,10.5C 782.397,9.19522 784.731,8.52856 787.5,8.5C 790.269,8.52856 792.603,9.19522 794.5,10.5 Z"/></g>
<g><path style="opacity:1" fill="#1d1d1d" d="M 401.5,12.5 C 382.763,10.8525 364.096,11.1858 345.5,13.5C 347.026,11.87 349.026,11.0367 351.5,11C 367.167,10.3333 382.833,10.3333 398.5,11C 399.737,11.2321 400.737,11.7321 401.5,12.5 Z"/></g>
<g><path style="opacity:1" fill="#030303" d="M 142.5,42.5 C 121.5,42.5 100.5,42.5 79.5,42.5C 79.5,58.8333 79.5,75.1667 79.5,91.5C 95.5,91.5 111.5,91.5 127.5,91.5C 128.117,91.6107 128.617,91.944 129,92.5C 129.667,102.167 129.667,111.833 129,121.5C 128.722,122.416 128.222,123.082 127.5,123.5C 111.5,123.5 95.5,123.5 79.5,123.5C 79.5,140.167 79.5,156.833 79.5,173.5C 100.5,173.5 121.5,173.5 142.5,173.5C 143.167,173.833 143.833,174.167 144.5,174.5C 144.807,184.582 144.474,194.582 143.5,204.5C 111.833,204.5 80.1667,204.5 48.5,204.5C 47.5038,140.238 47.1705,75.9045 47.5,11.5C 79.4284,10.3415 111.428,10.1748 143.5,11C 144.651,20.7559 144.818,30.5893 144,40.5C 143.283,41.0442 142.783,41.7109 142.5,42.5 Z"/></g>
<g><path style="opacity:1" fill="#010101" d="M 162.5,10.5 C 171.5,10.5 180.5,10.5 189.5,10.5C 190.468,13.1003 191.801,15.4336 193.5,17.5C 193.5,17.8333 193.5,18.1667 193.5,18.5C 194.083,21.9466 195.416,24.9466 197.5,27.5C 198.038,29.1172 198.371,30.7839 198.5,32.5C 199.083,35.9466 200.416,38.9466 202.5,41.5C 203.038,43.1172 203.371,44.7839 203.5,46.5C 204.083,49.9466 205.416,52.9466 207.5,55.5C 208.038,57.1172 208.371,58.7839 208.5,60.5C 209.462,64.3948 210.796,68.0615 212.5,71.5C 214.168,77.1933 216.168,82.86 218.5,88.5C 219.083,91.9466 220.416,94.9466 222.5,97.5C 223.038,99.1172 223.371,100.784 223.5,102.5C 224.083,105.947 225.416,108.947 227.5,111.5C 227.592,113.848 228.592,115.514 230.5,116.5C 231.173,81.2644 231.84,45.9311 232.5,10.5C 242.167,10.5 251.833,10.5 261.5,10.5C 262.493,74.7919 262.826,139.125 262.5,203.5C 262.5,203.833 262.5,204.167 262.5,204.5C 252.47,205.811 242.47,205.811 232.5,204.5C 232.204,202.597 231.537,200.93 230.5,199.5C 229.833,198.167 229.167,196.833 228.5,195.5C 227.993,191.917 226.993,188.583 225.5,185.5C 224.691,183.972 224.024,182.306 223.5,180.5C 222.946,177.254 221.946,174.254 220.5,171.5C 219.691,169.972 219.024,168.306 218.5,166.5C 217.946,163.254 216.946,160.254 215.5,157.5C 214.833,156.167 214.167,154.833 213.5,153.5C 212.993,149.917 211.993,146.583 210.5,143.5C 209.691,141.972 209.024,140.306 208.5,138.5C 207.946,135.254 206.946,132.254 205.5,129.5C 204.691,127.972 204.024,126.306 203.5,124.5C 202.946,121.254 201.946,118.254 200.5,115.5C 199.331,112.659 198.331,109.659 197.5,106.5C 197.245,104.033 196.245,102.033 194.5,100.5C 194.5,100.167 194.5,99.8333 194.5,99.5C 194.5,99.1667 194.5,98.8333 194.5,98.5C 193.791,97.596 192.791,97.2627 191.5,97.5C 191.5,132.833 191.5,168.167 191.5,203.5C 191.389,204.117 191.056,204.617 190.5,205C 180.833,205.667 171.167,205.667 161.5,205C 160.944,204.617 160.611,204.117 160.5,203.5C 160.333,139.832 160.5,76.1658 161,12.5C 161.717,11.9558 162.217,11.2891 162.5,10.5 Z"/></g>
<g><path style="opacity:1" fill="#030303" d="M 281.5,10.5 C 291.416,10.181 301.25,10.5144 311,11.5C 311.667,75.5 311.667,139.5 311,203.5C 310.5,204 310,204.5 309.5,205C 299.658,205.825 289.991,205.658 280.5,204.5C 279.341,140.541 279.174,76.5406 280,12.5C 280.717,11.9558 281.217,11.2891 281.5,10.5 Z"/></g>
<g><path style="opacity:1" fill="#020202" d="M 401.5,12.5 C 410.158,14.1768 416.492,18.8435 420.5,26.5C 420.259,28.8984 420.926,30.8984 422.5,32.5C 423.434,33.5676 423.768,34.901 423.5,36.5C 423.5,48.8333 423.5,61.1667 423.5,73.5C 412.752,73.8091 402.085,73.4758 391.5,72.5C 391.831,63.8078 391.498,55.1411 390.5,46.5C 388.736,44.7224 386.736,43.3891 384.5,42.5C 378.347,41.3467 372.014,41.18 365.5,42C 364.584,42.2784 363.918,42.7784 363.5,43.5C 363.167,44.5 362.5,45.1667 361.5,45.5C 360.778,45.9175 360.278,46.5842 360,47.5C 359.173,60.3401 359.34,73.0067 360.5,85.5C 360.5,86.1667 360.833,86.5 361.5,86.5C 364.505,88.2766 367.838,89.2766 371.5,89.5C 372.833,89.8333 374.167,90.1667 375.5,90.5C 377.755,92.3803 380.422,93.3803 383.5,93.5C 387.687,94.969 392.02,96.3023 396.5,97.5C 398.102,99.0739 400.102,99.7406 402.5,99.5C 403.209,100.404 404.209,100.737 405.5,100.5C 407.617,102.655 410.284,103.655 413.5,103.5C 414.952,104.302 416.618,104.802 418.5,105C 419.705,106.376 421.038,107.542 422.5,108.5C 423.167,109.167 423.833,109.833 424.5,110.5C 424.667,131.169 424.5,151.836 424,172.5C 423.452,176.17 422.952,179.837 422.5,183.5C 422.5,183.833 422.5,184.167 422.5,184.5C 420.755,186.033 419.755,188.033 419.5,190.5C 418.662,190.842 418.328,191.508 418.5,192.5C 415.833,194.5 413.5,196.833 411.5,199.5C 407.203,200.655 403.203,202.321 399.5,204.5C 382.658,204.83 365.992,204.497 349.5,203.5C 347.898,201.926 345.898,201.259 343.5,201.5C 341.249,200.589 339.249,199.256 337.5,197.5C 336.833,196.167 335.833,195.167 334.5,194.5C 334.167,193.5 333.5,192.833 332.5,192.5C 332.245,190.033 331.245,188.033 329.5,186.5C 328.515,182.924 327.848,179.258 327.5,175.5C 327.168,164.48 327.501,153.48 328.5,142.5C 338.833,141.19 349.166,141.19 359.5,142.5C 359.334,150.507 359.5,158.507 360,166.5C 360.669,168.59 361.836,170.257 363.5,171.5C 363.918,172.222 364.584,172.722 365.5,173C 371.833,173.667 378.167,173.667 384.5,173C 385.416,172.722 386.082,172.222 386.5,171.5C 388.504,170.327 390.004,168.66 391,166.5C 391.5,154.505 391.667,142.505 391.5,130.5C 388.673,130.416 386.006,129.75 383.5,128.5C 381.064,127.129 378.397,126.129 375.5,125.5C 373.079,125.122 370.746,124.455 368.5,123.5C 366.064,122.129 363.397,121.129 360.5,120.5C 357.933,120.279 355.599,119.612 353.5,118.5C 351.064,117.129 348.397,116.129 345.5,115.5C 342.933,115.279 340.599,114.612 338.5,113.5C 337.07,112.463 335.403,111.796 333.5,111.5C 330.221,111.211 328.221,109.544 327.5,106.5C 327.5,82.5 327.5,58.5 327.5,34.5C 328.249,31.799 329.249,29.1323 330.5,26.5C 331.906,26.0269 332.573,25.0269 332.5,23.5C 332.5,22.8333 332.833,22.5 333.5,22.5C 335.833,20.8333 337.833,18.8333 339.5,16.5C 339.5,15.8333 339.833,15.5 340.5,15.5C 342.403,15.2041 344.07,14.5375 345.5,13.5C 364.096,11.1858 382.763,10.8525 401.5,12.5 Z"/></g>
<g><path style="opacity:1" fill="#040404" d="M 470.5,10.5 C 471.15,37.6276 471.817,64.6276 472.5,91.5C 482.833,91.5 493.167,91.5 503.5,91.5C 504.332,65.3365 504.832,39.0032 505,12.5C 505.717,11.9558 506.217,11.2891 506.5,10.5C 516.416,10.181 526.25,10.5144 536,11.5C 536.667,75.5 536.667,139.5 536,203.5C 535.5,204 535,204.5 534.5,205C 524.423,205.807 514.423,205.64 504.5,204.5C 503.518,177.878 503.184,151.211 503.5,124.5C 493.347,123.506 483.014,123.172 472.5,123.5C 472.5,149.833 472.5,176.167 472.5,202.5C 472.047,203.458 471.381,204.292 470.5,205C 460.833,205.667 451.167,205.667 441.5,205C 441,204.5 440.5,204 440,203.5C 439.333,139.5 439.333,75.5 440,11.5C 450.084,10.5139 460.251,10.1806 470.5,10.5 Z"/></g>
<g><path style="opacity:1" fill="#040404" d="M 641.5,42.5 C 631.833,42.5 622.167,42.5 612.5,42.5C 612.5,95.8333 612.5,149.167 612.5,202.5C 612.167,203.5 611.5,204.167 610.5,204.5C 600.584,204.819 590.75,204.486 581,203.5C 580.833,149.665 580.333,95.9984 579.5,42.5C 570.014,41.5062 560.348,41.1729 550.5,41.5C 549.391,41.4431 548.391,41.1098 547.5,40.5C 547.181,30.5837 547.514,20.7504 548.5,11C 580.167,10.3333 611.833,10.3333 643.5,11C 644.651,20.7559 644.818,30.5893 644,40.5C 643.292,41.3805 642.458,42.0472 641.5,42.5 Z"/></g>
<g><path style="opacity:1" fill="#020202" d="M 656.5,10.5 C 687.833,10.5 719.167,10.5 750.5,10.5C 751.45,20.4478 751.784,30.4478 751.5,40.5C 750.833,41.1667 750.167,41.8333 749.5,42.5C 728.5,42.5 707.5,42.5 686.5,42.5C 686.5,58.8333 686.5,75.1667 686.5,91.5C 702.5,91.5 718.5,91.5 734.5,91.5C 735.458,91.9528 736.292,92.6195 737,93.5C 737.5,102.827 737.666,112.161 737.5,121.5C 736.711,121.783 736.044,122.283 735.5,123C 719.503,123.5 703.503,123.667 687.5,123.5C 686.503,139.992 686.17,156.658 686.5,173.5C 708.242,173.178 729.909,173.512 751.5,174.5C 751.5,184.5 751.5,194.5 751.5,204.5C 719.833,204.5 688.167,204.5 656.5,204.5C 655.167,139.833 655.167,75.1667 656.5,10.5 Z"/></g>
<g><path style="opacity:1" fill="#8d8d8d" d="M 796.5,11.5 C 798.027,11.427 799.027,12.0937 799.5,13.5C 797.973,13.573 796.973,12.9063 796.5,11.5 Z"/></g>
<g><path style="opacity:1" fill="#505050" d="M 189.5,10.5 C 191.942,12.1209 193.275,14.4542 193.5,17.5C 191.801,15.4336 190.468,13.1003 189.5,10.5 Z"/></g>
<g><path style="opacity:1" fill="#393939" d="M 162.5,10.5 C 162.217,11.2891 161.717,11.9558 161,12.5C 160.5,76.1658 160.333,139.832 160.5,203.5C 159.335,139.668 159.168,75.668 160,11.5C 160.671,10.7476 161.504,10.4142 162.5,10.5 Z"/></g>
<g><path style="opacity:1" fill="#cfcfcf" d="M 472.5,12.5 C 473.498,38.328 473.831,64.328 473.5,90.5C 483.5,90.5 493.5,90.5 503.5,90.5C 503.5,90.8333 503.5,91.1667 503.5,91.5C 493.167,91.5 482.833,91.5 472.5,91.5C 472.5,65.1667 472.5,38.8333 472.5,12.5 Z"/></g>
<g><path style="opacity:1" fill="#dfdfdf" d="M 278.5,11.5 C 278.171,75.9045 278.504,140.238 279.5,204.5C 278.167,172.674 277.5,140.507 277.5,108C 277.5,75.6649 277.833,43.4983 278.5,11.5 Z"/></g>
<g><path style="opacity:1" fill="#303030" d="M 281.5,10.5 C 281.217,11.2891 280.717,11.9558 280,12.5C 279.174,76.5406 279.341,140.541 280.5,204.5C 280.167,204.5 279.833,204.5 279.5,204.5C 278.504,140.238 278.171,75.9045 278.5,11.5C 279.391,10.8902 280.391,10.5569 281.5,10.5 Z"/></g>
<g><path style="opacity:1" fill="#6c6c6c" d="M 345.5,13.5 C 344.07,14.5375 342.403,15.2041 340.5,15.5C 341.635,13.7868 343.302,13.1201 345.5,13.5 Z"/></g>
<g><path style="opacity:1" fill="#494949" d="M 656.5,10.5 C 655.167,75.1667 655.167,139.833 656.5,204.5C 656.167,204.5 655.833,204.5 655.5,204.5C 654.337,140.237 654.171,75.9037 655,11.5C 655.383,10.944 655.883,10.6107 656.5,10.5 Z"/></g>
<g><path style="opacity:1" fill="#404040" d="M 232.5,10.5 C 231.84,45.9311 231.173,81.2644 230.5,116.5C 229.84,80.8176 230.507,45.4842 232.5,10.5 Z"/></g>
<g><path style="opacity:1" fill="#d1d1d1" d="M 263.5,11.5 C 264.167,43.4983 264.5,75.6649 264.5,108C 264.5,140.507 263.833,172.674 262.5,204.5C 262.5,204.167 262.5,203.833 262.5,203.5C 263.499,139.669 263.832,75.6688 263.5,11.5 Z"/></g>
<g><path style="opacity:1" fill="#939393" d="M 750.5,10.5 C 751.117,10.6107 751.617,10.944 752,11.5C 752.825,21.3422 752.658,31.0089 751.5,40.5C 751.784,30.4478 751.45,20.4478 750.5,10.5 Z"/></g>
<g><path style="opacity:1" fill="#383838" d="M 261.5,10.5 C 262.167,10.8333 262.833,11.1667 263.5,11.5C 263.832,75.6688 263.499,139.669 262.5,203.5C 262.826,139.125 262.493,74.7919 261.5,10.5 Z"/></g>
<g><path style="opacity:1" fill="#373737" d="M 506.5,10.5 C 506.217,11.2891 505.717,11.9558 505,12.5C 504.832,39.0032 504.332,65.3365 503.5,91.5C 503.5,91.1667 503.5,90.8333 503.5,90.5C 503.333,64.1646 503.5,37.8312 504,11.5C 504.671,10.7476 505.504,10.4142 506.5,10.5 Z"/></g>
<g><path style="opacity:1" fill="#1f1f1f" d="M 794.5,10.5 C 794.842,11.3382 795.508,11.6716 796.5,11.5C 796.973,12.9063 797.973,13.573 799.5,13.5C 802.164,15.4844 803.831,18.1511 804.5,21.5C 805.299,24.4299 805.632,27.4299 805.5,30.5C 803.942,34.6047 801.609,38.2713 798.5,41.5C 796.326,41.7497 794.659,42.7497 793.5,44.5C 782.192,47.2343 774.359,43.2343 770,32.5C 769.232,28.0804 769.398,23.7471 770.5,19.5C 771.906,19.0269 772.573,18.0269 772.5,16.5C 774.313,13.3528 776.98,11.3528 780.5,10.5C 785.167,9.16667 789.833,9.16667 794.5,10.5 Z"/></g>
<g><path style="opacity:1" fill="#e6e6e6" d="M 790.5,13.5 C 800.677,17.1949 803.844,24.1949 800,34.5C 791.511,43.6986 783.177,43.6986 775,34.5C 773.543,30.2589 773.209,25.9255 774,21.5C 775.331,19.0038 777.164,17.0038 779.5,15.5C 783.015,14.0807 786.681,13.414 790.5,13.5 Z"/></g>
<g><path style="opacity:1" fill="#7c7c7c" d="M 790.5,13.5 C 786.681,13.414 783.015,14.0807 779.5,15.5C 780.058,14.2101 781.058,13.3768 782.5,13C 785.367,12.1993 788.034,12.3659 790.5,13.5 Z"/></g>
<g><path style="opacity:1" fill="#3f3f3f" d="M 470.5,10.5 C 471.5,10.8333 472.167,11.5 472.5,12.5C 472.5,38.8333 472.5,65.1667 472.5,91.5C 471.817,64.6276 471.15,37.6276 470.5,10.5 Z"/></g>
<g><path style="opacity:1" fill="#999999" d="M 772.5,16.5 C 772.573,18.0269 771.906,19.0269 770.5,19.5C 770.427,17.9731 771.094,16.9731 772.5,16.5 Z"/></g>
<g><path style="opacity:1" fill="#9c9c9c" d="M 47.5,11.5 C 47.1705,75.9045 47.5038,140.238 48.5,204.5C 47.1668,172.674 46.5001,140.507 46.5,108C 46.5,75.6649 46.8333,43.4983 47.5,11.5 Z"/></g>
<g><path style="opacity:1" fill="#565656" d="M 339.5,16.5 C 337.833,18.8333 335.833,20.8333 333.5,22.5C 334.5,19.5 336.5,17.5 339.5,16.5 Z"/></g>
<g><path style="opacity:1" fill="#181818" d="M 793.5,26.5 C 791.448,27.0527 791.115,28.0527 792.5,29.5C 793.906,29.9731 794.573,30.9731 794.5,32.5C 792.95,33.7199 791.284,33.7199 789.5,32.5C 789.288,30.6159 788.288,29.2826 786.5,28.5C 785.534,30.396 785.201,32.396 785.5,34.5C 784.167,34.5 782.833,34.5 781.5,34.5C 781.5,29.5 781.5,24.5 781.5,19.5C 785.637,19.1463 789.637,19.6463 793.5,21C 794.752,22.8278 794.752,24.6612 793.5,26.5 Z"/></g>
<g><path style="opacity:1" fill="#989898" d="M 193.5,18.5 C 195.568,20.9789 196.901,23.9789 197.5,27.5C 195.416,24.9466 194.083,21.9466 193.5,18.5 Z"/></g>
<g><path style="opacity:1" fill="#bbbbbb" d="M 785.5,22.5 C 786.833,22.5 788.167,22.5 789.5,22.5C 789.5,23.5 789.5,24.5 789.5,25.5C 788.167,25.5 786.833,25.5 785.5,25.5C 785.5,24.5 785.5,23.5 785.5,22.5 Z"/></g>
<g><path style="opacity:1" fill="#7d7d7d" d="M 332.5,23.5 C 332.573,25.0269 331.906,26.0269 330.5,26.5C 330.427,24.9731 331.094,23.9731 332.5,23.5 Z"/></g>
<g><path style="opacity:1" fill="#adadad" d="M 804.5,21.5 C 805.117,21.6107 805.617,21.944 806,22.5C 806.801,25.367 806.634,28.0336 805.5,30.5C 805.632,27.4299 805.299,24.4299 804.5,21.5 Z"/></g>
<g><path style="opacity:1" fill="#5c5c5c" d="M 793.5,26.5 C 792.89,27.391 792.557,28.391 792.5,29.5C 791.115,28.0527 791.448,27.0527 793.5,26.5 Z"/></g>
<g><path style="opacity:1" fill="#5d5d5d" d="M 420.5,26.5 C 422.074,28.1016 422.741,30.1016 422.5,32.5C 420.926,30.8984 420.259,28.8984 420.5,26.5 Z"/></g>
<g><path style="opacity:1" fill="#5c5c5c" d="M 789.5,32.5 C 791.284,33.7199 792.95,33.7199 794.5,32.5C 795.043,32.56 795.376,32.8933 795.5,33.5C 794.5,33.8333 793.5,34.1667 792.5,34.5C 790.97,34.3601 789.97,33.6935 789.5,32.5 Z"/></g>
<g><path style="opacity:1" fill="#999999" d="M 198.5,32.5 C 200.568,34.9789 201.901,37.9789 202.5,41.5C 200.416,38.9466 199.083,35.9466 198.5,32.5 Z"/></g>
<g><path style="opacity:1" fill="#606060" d="M 384.5,42.5 C 377.465,42.3257 370.465,42.6591 363.5,43.5C 363.918,42.7784 364.584,42.2784 365.5,42C 372.014,41.18 378.347,41.3467 384.5,42.5 Z"/></g>
<g><path style="opacity:1" fill="#7a7a7a" d="M 550.5,41.5 C 560.348,41.1729 570.014,41.5062 579.5,42.5C 579.5,95.8333 579.5,149.167 579.5,202.5C 578.501,149.669 578.168,96.6693 578.5,43.5C 569.167,42.8333 559.833,42.1667 550.5,41.5 Z"/></g>
<g><path style="opacity:1" fill="#aeaeae" d="M 142.5,42.5 C 122.007,43.4972 101.34,43.8305 80.5,43.5C 80.5,59.1667 80.5,74.8333 80.5,90.5C 96.3422,90.1704 112.009,90.5037 127.5,91.5C 111.5,91.5 95.5,91.5 79.5,91.5C 79.5,75.1667 79.5,58.8333 79.5,42.5C 100.5,42.5 121.5,42.5 142.5,42.5 Z"/></g>
<g><path style="opacity:1" fill="#c1c1c1" d="M 547.5,40.5 C 548.391,41.1098 549.391,41.4431 550.5,41.5C 559.833,42.1667 569.167,42.8333 578.5,43.5C 568.494,43.6665 558.494,43.4998 548.5,43C 547.748,42.3292 547.414,41.4959 547.5,40.5 Z"/></g>
<g><path style="opacity:1" fill="#8a8a8a" d="M 798.5,41.5 C 797.514,43.4077 795.848,44.4077 793.5,44.5C 794.659,42.7497 796.326,41.7497 798.5,41.5 Z"/></g>
<g><path style="opacity:1" fill="#b0b0b0" d="M 327.5,34.5 C 327.5,58.5 327.5,82.5 327.5,106.5C 326.778,106.082 326.278,105.416 326,104.5C 325.333,83.5 325.333,62.5 326,41.5C 326.186,38.9644 326.686,36.631 327.5,34.5 Z"/></g>
<g><path style="opacity:1" fill="#afafaf" d="M 423.5,36.5 C 424.29,37.6085 424.79,38.9419 425,40.5C 425.167,46.1667 425.333,51.8333 425.5,57.5C 425.496,63.5415 424.829,69.2082 423.5,74.5C 423.5,74.1667 423.5,73.8333 423.5,73.5C 423.5,61.1667 423.5,48.8333 423.5,36.5 Z"/></g>
<g><path style="opacity:1" fill="#8a8a8a" d="M 749.5,42.5 C 729.007,43.4972 708.34,43.8305 687.5,43.5C 687.5,59.1667 687.5,74.8333 687.5,90.5C 703.342,90.1704 719.009,90.5037 734.5,91.5C 718.5,91.5 702.5,91.5 686.5,91.5C 686.5,75.1667 686.5,58.8333 686.5,42.5C 707.5,42.5 728.5,42.5 749.5,42.5 Z"/></g>
<g><path style="opacity:1" fill="#e0e0e0" d="M 641.5,42.5 C 632.348,43.4936 623.015,43.8269 613.5,43.5C 613.832,96.6693 613.499,149.669 612.5,202.5C 612.5,149.167 612.5,95.8333 612.5,42.5C 622.167,42.5 631.833,42.5 641.5,42.5 Z"/></g>
<g><path style="opacity:1" fill="#343434" d="M 579.5,42.5 C 580.333,95.9984 580.833,149.665 581,203.5C 590.75,204.486 600.584,204.819 610.5,204.5C 600.675,205.658 590.675,205.825 580.5,205C 579.748,204.329 579.414,203.496 579.5,202.5C 579.5,149.167 579.5,95.8333 579.5,42.5 Z"/></g>
<g><path style="opacity:1" fill="#999999" d="M 203.5,46.5 C 205.568,48.9789 206.901,51.9789 207.5,55.5C 205.416,52.9466 204.083,49.9466 203.5,46.5 Z"/></g>
<g><path style="opacity:1" fill="#919191" d="M 361.5,45.5 C 360.575,58.8036 360.242,72.1369 360.5,85.5C 359.34,73.0067 359.173,60.3401 360,47.5C 360.278,46.5842 360.778,45.9175 361.5,45.5 Z"/></g>
<g><path style="opacity:1" fill="#8e8e8e" d="M 208.5,60.5 C 210.968,63.5531 212.301,67.2198 212.5,71.5C 210.796,68.0615 209.462,64.3948 208.5,60.5 Z"/></g>
<g><path style="opacity:1" fill="#404040" d="M 391.5,72.5 C 402.085,73.4758 412.752,73.8091 423.5,73.5C 423.5,73.8333 423.5,74.1667 423.5,74.5C 413.547,75.6168 403.547,75.7835 393.5,75C 392.244,74.5831 391.577,73.7498 391.5,72.5 Z"/></g>
<g><path style="opacity:1" fill="#787878" d="M 361.5,86.5 C 365.162,86.7234 368.495,87.7234 371.5,89.5C 367.838,89.2766 364.505,88.2766 361.5,86.5 Z"/></g>
<g><path style="opacity:1" fill="#ababab" d="M 375.5,90.5 C 378.716,90.3455 381.383,91.3455 383.5,93.5C 380.422,93.3803 377.755,92.3803 375.5,90.5 Z"/></g>
<g><path style="opacity:1" fill="#989898" d="M 218.5,88.5 C 220.568,90.9789 221.901,93.9789 222.5,97.5C 220.416,94.9466 219.083,91.9466 218.5,88.5 Z"/></g>
<g><path style="opacity:1" fill="#a2a2a2" d="M 396.5,97.5 C 398.898,97.2594 400.898,97.9261 402.5,99.5C 400.102,99.7406 398.102,99.0739 396.5,97.5 Z"/></g>
<g><path style="opacity:1" fill="#595959" d="M 405.5,100.5 C 408.397,101.129 411.064,102.129 413.5,103.5C 410.284,103.655 407.617,102.655 405.5,100.5 Z"/></g>
<g><path style="opacity:1" fill="#686868" d="M 194.5,100.5 C 196.245,102.033 197.245,104.033 197.5,106.5C 195.755,104.967 194.755,102.967 194.5,100.5 Z"/></g>
<g><path style="opacity:1" fill="#adadad" d="M 413.5,103.5 C 418.17,102.415 421.17,104.082 422.5,108.5C 421.038,107.542 419.705,106.376 418.5,105C 416.618,104.802 414.952,104.302 413.5,103.5 Z"/></g>
<g><path style="opacity:1" fill="#373737" d="M 194.5,98.5 C 192.507,132.817 191.84,167.484 192.5,202.5C 192.5,203.167 192.167,203.5 191.5,203.5C 191.5,168.167 191.5,132.833 191.5,97.5C 192.791,97.2627 193.791,97.596 194.5,98.5 Z"/></g>
<g><path style="opacity:1" fill="#989898" d="M 223.5,102.5 C 225.568,104.979 226.901,107.979 227.5,111.5C 225.416,108.947 224.083,105.947 223.5,102.5 Z"/></g>
<g><path style="opacity:1" fill="#bebebe" d="M 194.5,98.5 C 194.5,98.8333 194.5,99.1667 194.5,99.5C 193.833,133.833 193.167,168.167 192.5,202.5C 191.84,167.484 192.507,132.817 194.5,98.5 Z"/></g>
<g><path style="opacity:1" fill="#8d8d8d" d="M 333.5,111.5 C 335.403,111.796 337.07,112.463 338.5,113.5C 336.302,113.88 334.635,113.213 333.5,111.5 Z"/></g>
<g><path style="opacity:1" fill="#d0d0d0" d="M 424.5,110.5 C 425.663,132.996 425.83,155.663 425,178.5C 424.243,180.315 423.41,181.981 422.5,183.5C 422.952,179.837 423.452,176.17 424,172.5C 424.5,151.836 424.667,131.169 424.5,110.5 Z"/></g>
<g><path style="opacity:1" fill="#9f9f9f" d="M 345.5,115.5 C 348.397,116.129 351.064,117.129 353.5,118.5C 350.189,118.693 347.522,117.693 345.5,115.5 Z"/></g>
<g><path style="opacity:1" fill="#a4a4a4" d="M 360.5,120.5 C 363.397,121.129 366.064,122.129 368.5,123.5C 365.189,123.693 362.522,122.693 360.5,120.5 Z"/></g>
<g><path style="opacity:1" fill="#a2a2a2" d="M 200.5,115.5 C 201.946,118.254 202.946,121.254 203.5,124.5C 202.351,124.209 201.684,123.376 201.5,122C 200.923,119.863 200.59,117.696 200.5,115.5 Z"/></g>
<g><path style="opacity:1" fill="#a3a3a3" d="M 737.5,121.5 C 737.586,122.496 737.252,123.329 736.5,124C 720.17,124.5 703.837,124.667 687.5,124.5C 687.5,124.167 687.5,123.833 687.5,123.5C 703.503,123.667 719.503,123.5 735.5,123C 736.044,122.283 736.711,121.783 737.5,121.5 Z"/></g>
<g><path style="opacity:1" fill="#c5c5c5" d="M 503.5,124.5 C 503.167,124.5 502.833,124.5 502.5,124.5C 492.833,124.5 483.167,124.5 473.5,124.5C 473.831,150.672 473.498,176.672 472.5,202.5C 472.5,176.167 472.5,149.833 472.5,123.5C 483.014,123.172 493.347,123.506 503.5,124.5 Z"/></g>
<g><path style="opacity:1" fill="#a5a5a5" d="M 127.5,123.5 C 112.009,124.496 96.3422,124.83 80.5,124.5C 80.5,140.5 80.5,156.5 80.5,172.5C 101.34,172.169 122.007,172.503 142.5,173.5C 121.5,173.5 100.5,173.5 79.5,173.5C 79.5,156.833 79.5,140.167 79.5,123.5C 95.5,123.5 111.5,123.5 127.5,123.5 Z"/></g>
<g><path style="opacity:1" fill="#9f9f9f" d="M 375.5,125.5 C 378.397,126.129 381.064,127.129 383.5,128.5C 380.284,128.655 377.617,127.655 375.5,125.5 Z"/></g>
<g><path style="opacity:1" fill="#e5e5e5" d="M 502.5,124.5 C 502.833,124.5 503.167,124.5 503.5,124.5C 503.184,151.211 503.518,177.878 504.5,204.5C 503.883,204.389 503.383,204.056 503,203.5C 502.5,177.169 502.333,150.835 502.5,124.5 Z"/></g>
<g><path style="opacity:1" fill="#a5a5a5" d="M 205.5,129.5 C 206.946,132.254 207.946,135.254 208.5,138.5C 207.351,138.209 206.684,137.376 206.5,136C 205.923,133.863 205.59,131.696 205.5,129.5 Z"/></g>
<g><path style="opacity:1" fill="#4e4e4e" d="M 359.5,142.5 C 349.166,141.19 338.833,141.19 328.5,142.5C 327.501,153.48 327.168,164.48 327.5,175.5C 326.176,164.326 326.176,152.993 327.5,141.5C 337.786,140.358 348.12,140.191 358.5,141C 359.056,141.383 359.389,141.883 359.5,142.5 Z"/></g>
<g><path style="opacity:1" fill="#aeaeae" d="M 210.5,143.5 C 211.993,146.583 212.993,149.917 213.5,153.5C 212.883,153.389 212.383,153.056 212,152.5C 211.304,149.522 210.804,146.522 210.5,143.5 Z"/></g>
<g><path style="opacity:1" fill="#a8a8a8" d="M 215.5,157.5 C 216.946,160.254 217.946,163.254 218.5,166.5C 217.351,166.209 216.684,165.376 216.5,164C 215.923,161.863 215.59,159.696 215.5,157.5 Z"/></g>
<g><path style="opacity:1" fill="#848484" d="M 363.5,171.5 C 371.174,172.793 378.841,172.793 386.5,171.5C 386.082,172.222 385.416,172.722 384.5,173C 378.167,173.667 371.833,173.667 365.5,173C 364.584,172.722 363.918,172.222 363.5,171.5 Z"/></g>
<g><path style="opacity:1" fill="#7d7d7d" d="M 687.5,123.5 C 687.5,123.833 687.5,124.167 687.5,124.5C 687.5,140.5 687.5,156.5 687.5,172.5C 709.193,171.844 730.526,172.511 751.5,174.5C 729.909,173.512 708.242,173.178 686.5,173.5C 686.17,156.658 686.503,139.992 687.5,123.5 Z"/></g>
<g><path style="opacity:1" fill="#cecece" d="M 144.5,174.5 C 145.166,179.322 145.499,184.322 145.5,189.5C 145.494,194.881 144.828,199.881 143.5,204.5C 144.474,194.582 144.807,184.582 144.5,174.5 Z"/></g>
<g><path style="opacity:1" fill="#a7a7a7" d="M 220.5,171.5 C 221.946,174.254 222.946,177.254 223.5,180.5C 222.351,180.209 221.684,179.376 221.5,178C 220.923,175.863 220.59,173.696 220.5,171.5 Z"/></g>
<g><path style="opacity:1" fill="#949494" d="M 422.5,184.5 C 422.245,186.967 421.245,188.967 419.5,190.5C 419.755,188.033 420.755,186.033 422.5,184.5 Z"/></g>
<g><path style="opacity:1" fill="#9b9b9b" d="M 329.5,186.5 C 331.245,188.033 332.245,190.033 332.5,192.5C 330.755,190.967 329.755,188.967 329.5,186.5 Z"/></g>
<g><path style="opacity:1" fill="#b2b2b2" d="M 225.5,185.5 C 226.993,188.583 227.993,191.917 228.5,195.5C 227.883,195.389 227.383,195.056 227,194.5C 226.304,191.522 225.804,188.522 225.5,185.5 Z"/></g>
<g><path style="opacity:1" fill="#9c9c9c" d="M 334.5,194.5 C 335.833,195.167 336.833,196.167 337.5,197.5C 335.5,197.5 334.5,196.5 334.5,194.5 Z"/></g>
<g><path style="opacity:1" fill="#afafaf" d="M 418.5,192.5 C 417.167,195.833 414.833,198.167 411.5,199.5C 413.5,196.833 415.833,194.5 418.5,192.5 Z"/></g>
<g><path style="opacity:1" fill="#ababab" d="M 411.5,199.5 C 408.232,202.707 404.232,204.373 399.5,204.5C 403.203,202.321 407.203,200.655 411.5,199.5 Z"/></g>
<g><path style="opacity:1" fill="#8b8b8b" d="M 230.5,199.5 C 231.537,200.93 232.204,202.597 232.5,204.5C 230.787,203.365 230.12,201.698 230.5,199.5 Z"/></g>
<g><path style="opacity:1" fill="#606060" d="M 343.5,201.5 C 345.898,201.259 347.898,201.926 349.5,203.5C 347.102,203.741 345.102,203.074 343.5,201.5 Z"/></g>
<g><path style="opacity:1" fill="#b7b7b7" d="M 48.5,204.5 C 80.1667,204.5 111.833,204.5 143.5,204.5C 128.014,205.833 112.181,206.499 96,206.5C 79.819,206.499 63.9856,205.833 48.5,204.5 Z"/></g>
<g><path style="opacity:1" fill="#b8b8b8" d="M 655.5,204.5 C 655.833,204.5 656.167,204.5 656.5,204.5C 688.167,204.5 719.833,204.5 751.5,204.5C 735.848,205.833 719.848,206.499 703.5,206.5C 687.152,206.499 671.152,205.833 655.5,204.5 Z"/></g>
</svg>
